<svg id="visual" viewBox="0 0 900 600" width="900" height="600" xmlns="http://www.w3.org/2000/svg" xmlns:xlink="http://www.w3.org/1999/xlink" version="1.1"><path d="M0 91L82 103L164 73L245 97L327 73L409 43L491 115L573 43L655 115L736 115L818 85L900 103L900 0L818 0L736 0L655 0L573 0L491 0L409 0L327 0L245 0L164 0L82 0L0 0Z" fill="#4facf7"></path><path d="M0 151L82 151L164 127L245 133L327 109L409 91L491 175L573 127L655 211L736 157L818 127L900 205L900 101L818 83L736 113L655 113L573 41L491 113L409 41L327 71L245 95L164 71L82 101L0 89Z" fill="#08a2d4"></path><path d="M0 337L82 367L164 349L245 307L327 205L409 337L491 259L573 247L655 403L736 403L818 325L900 313L900 203L818 125L736 155L655 209L573 125L491 173L409 89L327 107L245 131L164 125L82 149L0 149Z" fill="#0095ae"></path><path d="M0 415L82 445L164 439L245 463L327 373L409 499L491 403L573 397L655 493L736 487L818 481L900 415L900 311L818 323L736 401L655 401L573 245L491 257L409 335L327 203L245 305L164 347L82 365L0 335Z" fill="#008587"></path><path d="M0 601L82 601L164 601L245 601L327 601L409 601L491 601L573 601L655 601L736 601L818 601L900 601L900 413L818 479L736 485L655 491L573 395L491 401L409 497L327 371L245 461L164 437L82 443L0 413Z" fill="#1f7461"></path></svg>